<svg version="1.1"
	 xmlns="http://www.w3.org/2000/svg" xmlns:xlink="http://www.w3.org/1999/xlink" xmlns:a="http://ns.adobe.com/AdobeSVGViewerExtensions/3.0/"
	 x="0px" y="0px" viewBox="0 0 163.6 163.6"
	 overflow="scroll" enable-background="new 0 0 163.6 163.6" xml:space="preserve">
<defs>
</defs>
<g>
	<path fill="#BFA774" d="M81.8,163.6L0,81.8L81.8,0l81.8,81.8L81.8,163.6z M1.1,81.8l80.7,80.7l80.7-80.7L81.8,1.1L1.1,81.8z"/>
</g>
<g>
	<path fill="#BFA774" d="M72.5,114.4V68.1H65v-7.4h7.6v-2.6c0-7.6,1.7-14.4,6.2-18.8c3.7-3.6,8.6-5,13.1-5c3.4,0,6.4,0.8,8.3,1.6
		l-1.3,7.6c-1.4-0.7-3.4-1.2-6.2-1.2c-8.3,0-10.4,7.3-10.4,15.6v2.9h13v7.4h-13v46.3H72.5z"/>
</g>
</svg>
