<svg version="1.1"
	 xmlns="http://www.w3.org/2000/svg" xmlns:xlink="http://www.w3.org/1999/xlink" xmlns:a="http://ns.adobe.com/AdobeSVGViewerExtensions/3.0/"
	 x="0px" y="0px" viewBox="0 0 166.5 166.5"
	 overflow="scroll" enable-background="new 0 0 166.5 166.5" xml:space="preserve">
<defs>
</defs>
<path fill="#E8D9BF" d="M83.2,0L0,83.2l83.2,83.2l83.2-83.2L83.2,0z M83.2,162.5L3.9,83.2L83.2,3.9l79.3,79.3L83.2,162.5z"/>
<path fill="#E8D9BF" d="M74.4,59.5v2.1h-8v8h8v46h9v-46h13v-8h-13v-2.5c0-8.2,2.2-15.6,10.6-15.6c2.8,0,4.8,0.6,6.3,1.2l1.4-7.6
	c-1.9-0.8-4.9-1.6-8.3-1.6c-4.6,0-9.2,1.4-12.9,5C75.8,45.1,74.4,52,74.4,59.5z"/>
</svg>
