<svg version="1.1"
	 xmlns="http://www.w3.org/2000/svg" xmlns:xlink="http://www.w3.org/1999/xlink" xmlns:a="http://ns.adobe.com/AdobeSVGViewerExtensions/3.0/"
	 x="0px" y="0px" viewBox="0 0 166.5 146.1"
	 overflow="scroll" enable-background="new 0 0 166.5 146.1" xml:space="preserve">
<defs>
</defs>
<path fill="#F343A6" d="M159.8,89.3c0.6-3.8,0.9-7.8,0.9-11.8C160.7,34.7,126,0,83.2,0S5.7,34.7,5.7,77.5c0,4,0.3,8,0.9,11.8
	c-4.6,2.4-7.3,7.5-6.4,12.8l6.2,34.1c1.2,6.5,7.5,10.8,14,9.7l1.7-0.3c6.5-1.2,10.8-7.5,9.7-14l-6.2-34.1c-0.9-5.1-5-8.9-9.9-9.7
	c0-0.1,0-0.2,0-0.4C15.7,50.2,45.9,20,83.2,20s67.5,30.2,67.5,67.5c0,0.1,0,0.3,0,0.4c-4.8,0.9-8.8,4.6-9.7,9.6l-6.2,34.1
	c-1.2,6.5,3.2,12.8,9.7,14l1.7,0.3c6.5,1.2,12.8-3.2,14-9.7l6.2-34.1C167.3,96.8,164.4,91.6,159.8,89.3z"/>
</svg>
