<svg version="1.1"
	 xmlns="http://www.w3.org/2000/svg" xmlns:xlink="http://www.w3.org/1999/xlink" xmlns:a="http://ns.adobe.com/AdobeSVGViewerExtensions/3.0/"
	 x="0px" y="0px" viewBox="0 0 166.5 166.5"
	 overflow="scroll" enable-background="new 0 0 166.5 166.5" xml:space="preserve">
<defs>
</defs>
<path fill="#F343A6" d="M0,83.2l83.2,83.2l83.2-83.2L83.2,0L0,83.2z M83.2,3.9l79.3,79.3l-79.3,79.3L3.9,83.2L83.2,3.9z"/>
<path fill="#F343A6" d="M120.4,110.6V55.1c0-5.7-4.6-10.3-10.3-10.3H56.7c-5.7,0-10.3,4.6-10.3,10.3v55.5c0,5.7,4.6,10.3,10.3,10.3
	h53.5C115.8,120.8,120.4,116.2,120.4,110.6z M93.4,57.6c0-1,0.8-1.8,1.8-1.8h11.4c1,0,1.8,0.8,1.8,1.8V67c0,1-0.8,1.8-1.8,1.8H95.2
	c-1,0-1.8-0.8-1.8-1.8V57.6z M96.6,76.8c-0.3,7-5.8,12-12.5,12s-12.2-5-12.5-12H96.6z M56.3,114.8c-2.3,0-3.9-2.2-3.9-4.6V74.9
	c1,1.4,2.9,1.9,5,1.9H65c0.3,11,8.8,18.6,19.2,18.6c10.4,0,18.9-7.6,19.2-18.6h7.1c1.4,0,2.9,0,4.9-0.7v34.1c0,2.3-2.9,4.6-5.3,4.6
	H56.3z"/>
</svg>
