<svg version="1.1"
	 xmlns="http://www.w3.org/2000/svg" xmlns:xlink="http://www.w3.org/1999/xlink" xmlns:a="http://ns.adobe.com/AdobeSVGViewerExtensions/3.0/"
	 x="0px" y="0px" viewBox="0 0 163.6 163.6"
	 overflow="scroll" enable-background="new 0 0 163.6 163.6" xml:space="preserve">
<defs>
</defs>
<g>
	<path fill="#BFA774" d="M81.8,163.6L0,81.8L81.8,0l81.8,81.8L81.8,163.6z M1.1,81.8l80.7,80.7l80.7-80.7L81.8,1.1L1.1,81.8z"/>
</g>
<path fill="#BFA774" d="M119,53.7c0-5.7-4.6-10.3-10.3-10.3H55.3C49.6,43.4,45,48,45,53.7v55.5c0,5.7,4.6,10.3,10.3,10.3h53.5
	c5.7,0,10.3-4.6,10.3-10.3V53.7z M107,65.6c0,1-0.8,1.8-1.8,1.8H93.8c-1,0-1.8-0.8-1.8-1.8v-9.4c0-1,0.8-1.8,1.8-1.8h11.4
	c1,0,1.8,0.8,1.8,1.8V65.6z M95.2,75.4c-0.3,7-5.8,12-12.5,12c-6.7,0-12.2-5-12.5-12H95.2z M108.8,113.4H54.9
	c-2.3,0-3.9-2.2-3.9-4.6V73.5c1,1.4,2.9,1.9,5,1.9h7.5c0.3,11,8.8,18.6,19.2,18.6s18.9-7.6,19.2-18.6h7.1c1.4,0,2.9,0,4.9-0.7v34.1
	C114,111.2,111.1,113.4,108.8,113.4z"/>
</svg>
