<svg version="1.1"
	 xmlns="http://www.w3.org/2000/svg" xmlns:xlink="http://www.w3.org/1999/xlink" xmlns:a="http://ns.adobe.com/AdobeSVGViewerExtensions/3.0/"
	 x="0px" y="0px" viewBox="0 0 166.5 166.5"
	 overflow="scroll" enable-background="new 0 0 166.5 166.5" xml:space="preserve">
<defs>
</defs>
<path fill="#DBCAA7" d="M166.5,83.2L83.2,0L0,83.2l83.2,83.2L166.5,83.2z M83.2,3.9l79.3,79.3l-79.3,79.3L3.9,83.2L83.2,3.9z"/>
<path fill="#DBCAA7" d="M118.4,71.8C118.4,71.8,118.4,71.8,118.4,71.8c4.4-2.9,5.2-16.5,5.2-16.5s2.6-2.1-13.8-2.2
	c-18.8-0.1-10,17.6-21.2,27.8C76.3,78.3,43,65.3,43,65.3c0,0,0,0,0,0c-2,6.8,5.9,26.4,10.9,28.5c0,0-0.1,0-0.1,0.1
	c-2.7,4.9,3,14.3,3.8,13.6c0.5,1,0.1,2.2-0.8,2.8l-13.7,6.1c-0.6,0.4-0.4,1.5,0.4,1.5c9.8,0.6,47.4,3.3,58.5-4
	C129.6,95.8,118.4,71.8,118.4,71.8z"/>
</svg>
