<svg version="1.1"
	 xmlns="http://www.w3.org/2000/svg" xmlns:xlink="http://www.w3.org/1999/xlink" xmlns:a="http://ns.adobe.com/AdobeSVGViewerExtensions/3.0/"
	 x="0px" y="0px" viewBox="0 0 163.6 163.6"
	 overflow="scroll" enable-background="new 0 0 163.6 163.6" xml:space="preserve">
<defs>
</defs>
<g>
	<path fill="#BFA774" d="M81.8,163.6L0,81.8L81.8,0l81.8,81.8L81.8,163.6z M1.1,81.8l80.7,80.7l80.7-80.7L81.8,1.1L1.1,81.8z"/>
</g>
<path fill="#BFA774" d="M108.4,48.7C89.7,48.6,98,69.4,86.8,79.6c-12.3-2.6-41.2-8.7-41.2-8.7c0,0,0,0,0,0c-2,6.8,1.9,16.4,6.9,18.5
	c0,0-0.1,0-0.1,0.1c-2.7,4.9,3,14.3,3.8,13.6c0.5,1,0.1,2.2-0.8,2.8l-13.7,6.1c-0.6,0.4-0.4,1.5,0.4,1.5c9.8,0.6,47.4,3.3,58.5-4
	C128.2,91.4,117,67.4,117,67.4c0,0,0,0,0,0c4.4-2.9,5.2-16.5,5.2-16.5S124.8,48.8,108.4,48.7z"/>
</svg>
