<svg version="1.1"
	 xmlns="http://www.w3.org/2000/svg" xmlns:xlink="http://www.w3.org/1999/xlink" xmlns:a="http://ns.adobe.com/AdobeSVGViewerExtensions/3.0/"
	 x="0px" y="0px" viewBox="0 0 163.6 163.6"
	 overflow="scroll" enable-background="new 0 0 163.6 163.6" xml:space="preserve">
<defs>
</defs>
<g>
	<g>
		<path fill="#BFA774" d="M81.8,163.6L0,81.8L81.8,0l81.8,81.8L81.8,163.6z M1.1,81.8l80.7,80.7l80.7-80.7L81.8,1.1L1.1,81.8z"/>
	</g>
</g>
<g>
	<path fill="#BFA774" d="M132,66.2c-5,6.4-13.8,13-23.5,11.1c-5.5,8.6-12.4,16.6-20.2,23.8c-4.1,3.9-8.9,8-13.8,11.1
		c-4.7,2.8-11.1,5-18,2.8c-10.2-3.6-7.2-23.2-3-31.3c4.4-9.4,10.2-18.3,15.8-27.4c1.4-2.2,3-6.9-3-3.3c-5,3-9.4,8.9-12.7,13.3
		c-1.1,1.4-3,0.8-1.4-1.4c5-6.4,14.9-20.7,24.1-16c6.9,3.6,3.3,14.7,0,21c-3.3,6.9-25.7,34.9-19.9,42c5.8,6.9,20.5-9.4,25.5-14.7
		c6.6-7.7,13-16,18.8-24.3c-2.2-3.3-2.8-8.6-2.2-12.2c0.8-5.3,4.7-10.2,9.7-12.2c6.1-2.5,9.4,3.3,8.6,8.6c-0.8,6.4-3.9,12.7-6.9,18
		c9.7,1.4,17.2-5.3,21-10.2C131.5,64,132.9,65.1,132,66.2z M110.7,51.5c-1.7-1.4-4.7,0.6-6.1,1.7c-4.7,3.9-6.1,12.4-2.8,18
		C103.3,69.2,113.2,53.5,110.7,51.5z"/>
</g>
</svg>
