<svg version="1.1"
	 xmlns="http://www.w3.org/2000/svg" xmlns:xlink="http://www.w3.org/1999/xlink" xmlns:a="http://ns.adobe.com/AdobeSVGViewerExtensions/3.0/"
	 x="0px" y="0px" viewBox="0 0 166.5 166.5"
	 overflow="scroll" enable-background="new 0 0 166.5 166.5" xml:space="preserve">
<defs>
</defs>
<path fill="#E8D9BF" d="M83.2,0L0,83.2l83.2,83.2l83.2-83.2L83.2,0z M83.2,3.9l79.3,79.3l-79.3,79.3L3.9,83.2L83.2,3.9z"/>
<path fill="#E8D9BF" d="M109.9,78.7c9.7,1.9,18.5-4.7,23.5-11.1c0.8-1.1-0.6-2.2-1.4-1.4c-3.9,5-11.3,11.6-21,10.2
	c3-5.3,6.1-11.6,6.9-18c0.8-5.3-2.5-11.1-8.6-8.6c-5,1.9-8.9,6.9-9.7,12.2c-0.6,3.6,0,8.9,2.2,12.2c-5.8,8.3-12.2,16.6-18.8,24.3
	c-5,5.3-19.6,21.6-25.5,14.7c-5.8-7.2,16.6-35.1,19.9-42c3.3-6.4,6.9-17.4,0-21c-9.1-4.7-19.1,9.7-24.1,16c-1.7,2.2,0.3,2.8,1.4,1.4
	c3.3-4.4,7.7-10.2,12.7-13.3c6.1-3.6,4.4,1.1,3,3.3c-5.5,9.1-11.3,18-15.8,27.4c-4.1,8-7.2,27.7,3,31.3c6.9,2.2,13.3,0,18-2.8
	c5-3,9.7-7.2,13.8-11.1C97.5,95.3,104.4,87.3,109.9,78.7z M106.1,54.6c1.4-1.1,4.4-3,6.1-1.7c2.5,1.9-7.5,17.7-8.9,19.6
	C100,67.1,101.4,58.5,106.1,54.6z"/>
</svg>
